<svg width="100%" height="137" viewBox="0 0 1918 137" fill="none" xmlns="http://www.w3.org/2000/svg">
<path d="M3.55732 136.495C4.24436 136.3 5.03308 136.076 5.92171 135.825C9.73159 134.75 15.3781 133.174 22.7233 131.172C37.4136 127.169 58.8986 121.463 86.0747 114.653C140.427 101.032 217.543 82.9932 308.595 65.3219C490.705 29.9783 728.539 -3.89019 951.487 1.99134C1174.45 7.8733 1416.05 41.7446 1601.91 74.148C1694.84 90.3494 1773.84 106.183 1829.6 117.966C1857.48 123.858 1879.55 128.737 1894.65 132.143C1902.2 133.846 1908.01 135.181 1911.93 136.09C1912.56 136.236 1913.15 136.371 1913.68 136.495H3.55732Z" fill="#0C0833" stroke="#0C0833"/>
</svg>
