<svg width="18" height="22" viewBox="0 0 18 22" fill="none" xmlns="http://www.w3.org/2000/svg">
<path d="M9.00035 12.8499C8.87035 12.8499 8.74035 12.8199 8.63035 12.7499C8.27035 12.5399 8.15035 12.0799 8.35035 11.7299L9.20035 10.2499H8.36035C7.86035 10.2499 7.45035 10.0299 7.23035 9.6599C7.01035 9.2799 7.03035 8.8199 7.28035 8.3799L8.35035 6.5199C8.56035 6.1599 9.02035 6.0399 9.37035 6.2399C9.73035 6.4499 9.85035 6.9099 9.65035 7.2599L8.80035 8.7499H9.64035C10.1404 8.7499 10.5504 8.9699 10.7704 9.3399C10.9904 9.7199 10.9704 10.1799 10.7204 10.6199L9.65035 12.4799C9.51035 12.7199 9.26035 12.8499 9.00035 12.8499Z" fill="white"/>
<path d="M11.7701 18.75H6.26012C5.82012 18.75 5.26012 18.7 4.89012 18.32C4.53012 17.95 4.54012 17.49 4.55012 17.18V16.29C2.03012 14.61 0.370117 11.69 0.370117 8.91005C0.370117 6.28005 1.55012 3.82005 3.60012 2.17005C5.65012 0.520047 8.34012 -0.0999528 10.9701 0.480047C13.4701 1.03005 15.6301 2.70005 16.7501 4.95005C18.9201 9.32005 16.8301 14.05 13.4901 16.3V17.05C13.5001 17.34 13.5101 17.87 13.1001 18.29C12.7901 18.59 12.3501 18.75 11.7701 18.75ZM6.04012 17.24C6.09012 17.24 6.16012 17.25 6.25012 17.25H11.7701C11.8701 17.25 11.9401 17.24 11.9801 17.23C11.9801 17.2 11.9801 17.16 11.9801 17.13V15.87C11.9801 15.61 12.1201 15.36 12.3401 15.23C15.3001 13.44 17.2601 9.35005 15.3901 5.60005C14.4701 3.75005 12.6901 2.38005 10.6301 1.93005C8.45012 1.45005 6.22012 1.96005 4.52012 3.33005C2.82012 4.70005 1.85012 6.73005 1.85012 8.91005C1.85012 11.69 3.77012 14.09 5.67012 15.24C5.90012 15.38 6.03012 15.62 6.03012 15.88V17.23C6.04012 17.23 6.04012 17.23 6.04012 17.24Z" fill="white"/>
<path d="M12.5003 21.7499C12.4303 21.7499 12.3603 21.7399 12.2903 21.7199C10.1303 21.0999 7.86025 21.0999 5.70025 21.7199C5.30025 21.8299 4.89025 21.5999 4.77025 21.1999C4.65025 20.7999 4.89025 20.3899 5.29025 20.2699C7.71025 19.5799 10.2803 19.5799 12.7003 20.2699C13.1003 20.3799 13.3303 20.7999 13.2203 21.1999C13.1303 21.5399 12.8303 21.7499 12.5003 21.7499Z" fill="white"/>
</svg>
